    <svg width="16" height="16" viewBox="0 0 16 16" fill="none" xmlns="http://www.w3.org/2000/svg">
    <path d="M4 4.66667V12C4 12.4111 4.11667 12.7389 4.35 12.9833C4.59444 13.2167 4.92222 13.3333 5.33333 13.3333H10.6667C11.0889 13.3333 11.4167 13.2167 11.65 12.9833C11.8833 12.7389 12 12.4111 12 12V4.66667H4ZM13.3333 12C13.3333 12.4889 13.2167 12.9389 12.9833 13.35C12.75 13.75 12.4278 14.0722 12.0167 14.3167C11.6056 14.55 11.1556 14.6667 10.6667 14.6667H5.33333C4.84444 14.6667 4.39444 14.55 3.98333 14.3167C3.58333 14.0722 3.26111 13.75 3.01667 13.35C2.78333 12.9389 2.66667 12.4889 2.66667 12V3.33333H13.3333V12ZM2 4.66667C1.72222 4.66667 1.52778 4.55556 1.41667 4.33333C1.31667 4.11111 1.31667 3.88889 1.41667 3.66667C1.52778 3.44444 1.72222 3.33333 2 3.33333H3.33333V4.66667H2ZM14 3.33333C14.2778 3.33333 14.4667 3.44444 14.5667 3.66667C14.6778 3.88889 14.6778 4.11111 14.5667 4.33333C14.4667 4.55556 14.2778 4.66667 14 4.66667H12.6667V3.33333H14ZM10 1.33333C10.2778 1.33333 10.4667 1.44444 10.5667 1.66667C10.6778 1.88889 10.6778 2.11111 10.5667 2.33333C10.4667 2.55556 10.2778 2.66667 10 2.66667H6C5.72222 2.66667 5.52778 2.55556 5.41667 2.33333C5.31667 2.11111 5.31667 1.88889 5.41667 1.66667C5.52778 1.44444 5.72222 1.33333 6 1.33333H10Z" fill="#999999"/>
    </svg>