<svg width="56" height="24" viewBox="0 0 56 24" fill="none" xmlns="http://www.w3.org/2000/svg">
<path d="M8.7 9.7C8.41667 9.98333 8.1 10.0667 7.75 9.95C7.4 9.83333 7.15833 9.60833 7.025 9.275C6.90833 8.925 7 8.6 7.3 8.3L11.275 4.3C11.4917 4.08333 11.7333 3.975 12 3.975C12.2667 3.975 12.5083 4.08333 12.725 4.3L16.7 8.3C16.9833 8.58333 17.0667 8.9 16.95 9.25C16.8333 9.6 16.6 9.84167 16.25 9.975C15.9167 10.0917 15.6 10 15.3 9.7L12 6.425L8.7 9.7ZM11 5H13V19C13 19.4167 12.8333 19.7083 12.5 19.875C12.1667 20.025 11.8333 20.025 11.5 19.875C11.1667 19.7083 11 19.4167 11 19V5Z" fill="#999999"/>
<path d="M44 17.575L47.3 14.3C47.6 14 47.9167 13.9167 48.25 14.05C48.6 14.1667 48.8333 14.4 48.95 14.75C49.0667 15.1 48.9833 15.4167 48.7 15.7L44.725 19.7C44.5083 19.9167 44.2667 20.025 44 20.025C43.7333 20.025 43.4917 19.9167 43.275 19.7L39.3 15.7C39 15.4 38.9083 15.0833 39.025 14.75C39.1583 14.4 39.4 14.1667 39.75 14.05C40.1 13.9333 40.4167 14.0167 40.7 14.3L44 17.575ZM43 5C43 4.58333 43.1667 4.3 43.5 4.15C43.8333 3.98333 44.1667 3.98333 44.5 4.15C44.8333 4.3 45 4.58333 45 5V19H43V5Z" fill="#999999"/>
</svg>
