            <svg width="32" height="32" viewBox="0 0 32 32" fill="none" xmlns="http://www.w3.org/2000/svg">
            <path d="M16 24C15.0889 24 14.2333 23.7778 13.4333 23.3333C12.6333 22.8667 11.9778 22.2556 11.4667 21.5C10.9778 20.7222 10.7111 19.8778 10.6667 18.9667C10.6444 18.8333 10.7333 18.8556 10.9333 19.0333C11.1556 19.2111 11.3667 19.4222 11.5667 19.6667C11.7889 19.8889 11.8444 20 11.7333 20H5.33333V17.3333H11.7333C12.1556 17.3333 12.5222 17.4778 12.8333 17.7667C13.1444 18.0556 13.3111 18.4222 13.3333 18.8667C13.3778 19.3778 13.5111 19.8222 13.7333 20.2C13.9556 20.5556 14.2556 20.8333 14.6333 21.0333C15.0333 21.2333 15.4889 21.3333 16 21.3333C16.5111 21.3333 16.9667 21.2333 17.3667 21.0333C17.7667 20.8333 18.0667 20.5556 18.2667 20.2C18.4889 19.8222 18.6222 19.3778 18.6667 18.8667C18.6889 18.4222 18.8556 18.0556 19.1667 17.7667C19.4778 17.4778 19.8444 17.3333 20.2667 17.3333H26.6667V20H20.2667C20.1778 20 20.2333 19.8889 20.4333 19.6667C20.6333 19.4222 20.8444 19.2111 21.0667 19.0333C21.2889 18.8556 21.3778 18.8333 21.3333 18.9667C21.2889 19.8778 21.0111 20.7222 20.5 21.5C20.0111 22.2556 19.3667 22.8667 18.5667 23.3333C17.7667 23.7778 16.9111 24 16 24ZM9.33333 28C8.35556 28 7.45556 27.7667 6.63333 27.3C5.83333 26.8111 5.18889 26.1667 4.7 25.3667C4.23333 24.5444 4 23.6444 4 22.6667V9.33333C4 8.35555 4.23333 7.45555 4.7 6.63333C5.18889 5.81111 5.83333 5.16666 6.63333 4.7C7.45556 4.23333 8.35556 4 9.33333 4H22.6667C23.6444 4 24.5444 4.23333 25.3667 4.7C26.1889 5.16666 26.8333 5.81111 27.3 6.63333C27.7667 7.45555 28 8.35555 28 9.33333V22.6667C28 23.6444 27.7667 24.5444 27.3 25.3667C26.8333 26.1667 26.1889 26.8111 25.3667 27.3C24.5444 27.7667 23.6444 28 22.6667 28H9.33333ZM22.6667 25.3333C23.5111 25.3333 24.1667 25.1 24.6333 24.6333C25.1 24.1444 25.3333 23.4889 25.3333 22.6667V9.33333C25.3333 8.48889 25.1 7.83333 24.6333 7.36666C24.1667 6.9 23.5111 6.66667 22.6667 6.66667H9.33333C8.51111 6.66667 7.85556 6.9 7.36667 7.36666C6.9 7.83333 6.66667 8.48889 6.66667 9.33333V22.6667C6.66667 23.4889 6.9 24.1444 7.36667 24.6333C7.85556 25.1 8.51111 25.3333 9.33333 25.3333H22.6667Z" fill="currentColor"/>
            </svg>