
            <svg width="32" height="32" viewBox="0 0 32 32" fill="none" xmlns="http://www.w3.org/2000/svg">
              <path d="M16 29.3333C13.6 29.3333 11.3778 28.7333 9.33333 27.5333C7.28889 26.3333 5.66667 24.7111 4.46667 22.6667C3.26667 20.6222 2.66667 18.4 2.66667 16C2.66667 13.6 3.26667 11.3778 4.46667 9.33333C5.66667 7.26667 7.28889 5.64444 9.33333 4.46667C11.3778 3.26667 13.6 2.66667 16 2.66667C18.4 2.66667 20.6222 3.26667 22.6667 4.46667C24.7333 5.64444 26.3556 7.26667 27.5333 9.33333C28.7333 11.3778 29.3333 13.6 29.3333 16C29.3333 18.4 28.7333 20.6222 27.5333 22.6667C26.3556 24.7111 24.7333 26.3333 22.6667 27.5333C20.6222 28.7333 18.4 29.3333 16 29.3333ZM16 26.6667C17.9778 26.6667 19.7778 26.2 21.4 25.2667C23.0444 24.3333 24.3333 23.0556 25.2667 21.4333C26.2 19.7889 26.6667 17.9778 26.6667 16C26.6667 14.0222 26.2 12.2222 25.2667 10.6C24.3333 8.95555 23.0444 7.66666 21.4 6.73333C19.7778 5.8 17.9778 5.33333 16 5.33333C14.0222 5.33333 12.2111 5.8 10.5667 6.73333C8.94445 7.66666 7.66667 8.95555 6.73333 10.6C5.8 12.2222 5.33333 14.0222 5.33333 16C5.33333 17.9778 5.8 19.7889 6.73333 21.4333C7.66667 23.0556 8.94445 24.3333 10.5667 25.2667C12.2111 26.2 14.0222 26.6667 16 26.6667ZM20.0333 10.3333C20.1667 9.8 20.4778 9.47778 20.9667 9.36666C21.4556 9.25555 21.8889 9.36667 22.2667 9.7C22.6444 10.0111 22.7667 10.4333 22.6333 10.9667L19.9667 21.6333C19.8778 22.0778 19.6333 22.3778 19.2333 22.5333C18.8556 22.6889 18.4778 22.6889 18.1 22.5333C17.7222 22.3778 17.4778 22.0778 17.3667 21.6333L16 16.1667L14.6333 21.6333C14.5444 22.0778 14.3 22.3778 13.9 22.5333C13.5222 22.6889 13.1444 22.6889 12.7667 22.5333C12.3889 22.3778 12.1444 22.0778 12.0333 21.6333L9.36667 10.9667C9.21111 10.4333 9.32222 10.0111 9.7 9.7C10.1 9.36667 10.5444 9.25555 11.0333 9.36666C11.5222 9.47778 11.8333 9.8 11.9667 10.3333L13.3333 15.8333L14.7 10.3333C14.8111 9.91111 15.0556 9.62222 15.4333 9.46667C15.8111 9.31111 16.1889 9.31111 16.5667 9.46667C16.9667 9.62222 17.2111 9.91111 17.3 10.3333L18.6667 15.8333L20.0333 10.3333ZM12 17.3333H9.33333C8.77778 17.3333 8.38889 17.1111 8.16667 16.6667C7.96667 16.2222 7.96667 15.7778 8.16667 15.3333C8.38889 14.8889 8.77778 14.6667 9.33333 14.6667H12V17.3333ZM22.6667 14.6667C23.2222 14.6667 23.6 14.8889 23.8 15.3333C24.0222 15.7778 24.0222 16.2222 23.8 16.6667C23.6 17.1111 23.2222 17.3333 22.6667 17.3333H20V14.6667H22.6667Z" fill="currentColor"/>
            </svg>