            <svg width="32" height="32" viewBox="0 0 32 32" fill="none" xmlns="http://www.w3.org/2000/svg">
            <path d="M9.33333 28C8.37778 28 7.48889 27.7667 6.66667 27.3C5.84444 26.8111 5.18889 26.1556 4.7 25.3333C4.23333 24.5111 4 23.6222 4 22.6667V15.7667C3.28889 15.0333 2.81111 14.1667 2.56667 13.1667C2.32222 12.1444 2.38889 11.1222 2.76667 10.1L3.76667 7.46667C4.16667 6.42222 4.82222 5.58889 5.73333 4.96667C6.64444 4.32222 7.65556 4 8.76667 4H23.2333C24.3444 4 25.3556 4.32222 26.2667 4.96667C27.1778 5.58889 27.8333 6.41111 28.2333 7.43333L29.2333 10.1C29.6111 11.1222 29.6778 12.1444 29.4333 13.1667C29.2111 14.1667 28.7333 15.0333 28 15.7667V22.6667C28 23.6222 27.7556 24.5111 27.2667 25.3333C26.8 26.1556 26.1556 26.8111 25.3333 27.3C24.5111 27.7667 23.6222 28 22.6667 28H9.33333ZM22.6667 25.3333C23.5111 25.3333 24.1667 25.1 24.6333 24.6333C25.1 24.1444 25.3333 23.4889 25.3333 22.6667V17.1333C24.9111 17.2667 24.5333 17.3333 24.2 17.3333C23.4 17.3333 22.6444 17.1556 21.9333 16.8C21.2444 16.4444 20.6556 15.9667 20.1667 15.3667C19.6778 15.9667 19.0889 16.4444 18.4 16.8C17.7111 17.1556 16.9556 17.3333 16.1333 17.3333H15.8667C15.0667 17.3333 14.3111 17.1556 13.6 16.8C12.9111 16.4444 12.3222 15.9667 11.8333 15.3667C11.3667 15.9667 10.7778 16.4444 10.0667 16.8C9.35556 17.1556 8.6 17.3333 7.8 17.3333C7.48889 17.3333 7.11111 17.2667 6.66667 17.1333V22.6667C6.66667 23.4889 6.9 24.1444 7.36667 24.6333C7.85556 25.1 8.51111 25.3333 9.33333 25.3333H22.6667ZM7.8 14.6667C8.55556 14.6667 9.16667 14.4667 9.63333 14.0667C10.1 13.6667 10.3778 13.0889 10.4667 12.3333L11.1667 6.66667H8.76667C8.14445 6.66667 7.62222 6.81111 7.2 7.1C6.8 7.36666 6.5 7.78889 6.3 8.36666L5.3 11.0333C5.05556 11.7 5 12.3111 5.13333 12.8667C5.28889 13.4 5.6 13.8333 6.06667 14.1667C6.53333 14.5 7.11111 14.6667 7.8 14.6667ZM16.1333 14.6667C16.7333 14.6667 17.2444 14.5444 17.6667 14.3C18.0889 14.0333 18.4 13.6778 18.6 13.2333C18.8 12.7889 18.8667 12.2778 18.8 11.7L18.1667 6.66667H13.8333L13.2 11.7C13.1333 12.2778 13.2 12.7889 13.4 13.2333C13.6 13.6778 13.9111 14.0333 14.3333 14.3C14.7556 14.5444 15.2667 14.6667 15.8667 14.6667H16.1333ZM24.2 14.6667C24.9111 14.6667 25.5 14.5 25.9667 14.1667C26.4333 13.8333 26.7333 13.4 26.8667 12.8667C27 12.3111 26.9556 11.7 26.7333 11.0333L25.7333 8.36666C25.5111 7.78889 25.1889 7.36666 24.7667 7.1C24.3667 6.81111 23.8556 6.66667 23.2333 6.66667H20.8667L21.5333 12.3333C21.6444 13.0889 21.9222 13.6667 22.3667 14.0667C22.8333 14.4667 23.4444 14.6667 24.2 14.6667Z" fill="currentColor"/>
            </svg>