    <svg width="13" height="14" viewBox="0 0 13 14" fill="none" xmlns="http://www.w3.org/2000/svg">
    <path d="M3.0875 11.1708C2.93403 11.3243 2.7625 11.3694 2.57292 11.3062C2.38333 11.2431 2.25243 11.1212 2.18021 10.9406C2.11701 10.751 2.16667 10.575 2.32917 10.4125L9.9125 2.82917C10.066 2.67569 10.2375 2.63056 10.4271 2.69375C10.6167 2.75694 10.7431 2.88333 10.8063 3.07292C10.8785 3.25347 10.8333 3.425 10.6708 3.5875L3.0875 11.1708ZM2.32917 3.5875C2.16667 3.425 2.11701 3.25347 2.18021 3.07292C2.2434 2.88333 2.36979 2.75694 2.55938 2.69375C2.75799 2.63056 2.93403 2.67569 3.0875 2.82917L10.6708 10.4125C10.8243 10.566 10.8694 10.7375 10.8063 10.9271C10.7431 11.1167 10.6167 11.2476 10.4271 11.3198C10.2465 11.383 10.075 11.3333 9.9125 11.1708L2.32917 3.5875Z" fill="#8298FF"/>
    </svg>