  <svg width="40" height="40" viewBox="0 0 40 40" fill="none" xmlns="http://www.w3.org/2000/svg">
    <path d="M11.6667 35C10.4444 35 9.31945 34.7083 8.29167 34.125C7.29167 33.5139 6.48611 32.7083 5.875 31.7083C5.29167 30.6806 5 29.5556 5 28.3333V11.6667C5 10.4444 5.29167 9.31944 5.875 8.29166C6.48611 7.26389 7.29167 6.45833 8.29167 5.875C9.31945 5.29166 10.4444 5 11.6667 5H28.3333C29.5556 5 30.6806 5.29166 31.7083 5.875C32.7361 6.45833 33.5417 7.26389 34.125 8.29166C34.7083 9.31944 35 10.4444 35 11.6667V28.3333C35 29.5556 34.7083 30.6806 34.125 31.7083C33.5417 32.7083 32.7361 33.5139 31.7083 34.125C30.6806 34.7083 29.5556 35 28.3333 35H11.6667ZM28.3333 31.6667C29.3889 31.6667 30.2083 31.375 30.7917 30.7917C31.375 30.1806 31.6667 29.3611 31.6667 28.3333V11.6667C31.6667 10.6111 31.375 9.79167 30.7917 9.20833C30.2083 8.625 29.3889 8.33333 28.3333 8.33333H11.6667C10.6389 8.33333 9.81945 8.625 9.20833 9.20833C8.625 9.79167 8.33333 10.6111 8.33333 11.6667V28.3333C8.33333 29.3611 8.625 30.1806 9.20833 30.7917C9.81945 31.375 10.6389 31.6667 11.6667 31.6667H28.3333ZM17.875 27.8333C17.5139 28.1944 17.1111 28.375 16.6667 28.375C16.2222 28.375 15.8194 28.1944 15.4583 27.8333L11.6667 24.0417L7.83333 27.8333C7.5 28.1667 7.11111 28.3333 6.66667 28.3333C6.19444 28.3333 5.79167 28.1806 5.45833 27.875C5.15278 27.5417 5 27.1389 5 26.6667C5 26.2222 5.16667 25.8333 5.5 25.5L10.4583 20.5C10.8194 20.1389 11.2222 19.9583 11.6667 19.9583C12.1111 19.9583 12.5139 20.1389 12.875 20.5L16.6667 24.2917L23.7917 17.1667C24.1528 16.8056 24.5556 16.625 25 16.625C25.4444 16.625 25.8472 16.8056 26.2083 17.1667L34.5 25.5C34.8333 25.8333 35 26.2222 35 26.6667C35 27.1389 34.8333 27.5417 34.5 27.875C34.1944 28.1806 33.8056 28.3333 33.3333 28.3333C32.8889 28.3333 32.5 28.1667 32.1667 27.8333L25 20.7083L17.875 27.8333ZM14.2083 17.5C13.2639 17.5 12.4583 17.1806 11.7917 16.5417C11.1528 15.875 10.8333 15.0694 10.8333 14.125C10.8333 13.2083 11.1528 12.4306 11.7917 11.7917C12.4583 11.1528 13.2639 10.8333 14.2083 10.8333C15.1528 10.8333 15.9306 11.1528 16.5417 11.7917C17.1806 12.4028 17.5 13.1806 17.5 14.125C17.5 15.0694 17.1806 15.875 16.5417 16.5417C15.9028 17.1806 15.125 17.5 14.2083 17.5Z" fill="#8298FF"/>
  </svg>