<svg width="502" height="121" viewBox="0 0 502 121" fill="none" xmlns="http://www.w3.org/2000/svg">
<path d="M76.56 0.535995C83.344 0.535995 87.44 4.88799 87.44 11.288V120.728H65.68V70.168H64.656C57.488 70.168 53.008 65.688 53.008 59.032C53.008 52.504 57.36 47.64 64.656 47.64H65.68V11.288C65.68 4.88799 69.776 0.535995 76.56 0.535995ZM105.104 0.535995C111.888 0.535995 116.24 4.88799 116.24 11.544V120.728H93.84V11.544C93.84 4.88799 98.32 0.535995 105.104 0.535995ZM28.56 94.232H52.368C59.792 94.232 61.968 100.12 61.968 104.984C61.968 109.976 59.664 115.608 52.368 115.608H18.192C3.856 115.608 0.784 111.64 0.784 97.944V22.552C0.784 8.856 3.856 5.01599 18.192 5.01599H47.76C55.184 5.01599 57.36 10.904 57.36 15.768C57.36 20.76 55.056 26.648 47.76 26.648H28.56C26.256 26.648 25.232 27.416 25.232 30.36V49.048H40.208C47.632 49.048 50.448 54.296 50.448 59.672C50.448 64.92 47.504 70.168 40.208 70.168H25.232V90.52C25.232 93.464 26.256 94.232 28.56 94.232ZM242.32 120.728H216.72V13.208C216.72 4.88799 222.736 0.535995 229.52 0.535995C236.304 0.535995 242.32 4.88799 242.32 13.208V120.728ZM129.424 83.864V36.888C129.424 14.744 144.784 2.58399 165.776 2.58399C186.768 2.58399 202.256 14.616 202.256 36.888V83.864C202.256 106.264 186.768 118.296 165.904 118.296C144.912 118.296 129.424 106.264 129.424 83.864ZM154.384 35.992V84.76C154.384 93.208 159.888 97.304 165.776 97.304C171.664 97.304 177.424 93.208 177.424 84.76V35.992C177.424 27.8 171.664 23.448 165.776 23.576C159.888 23.704 154.384 27.928 154.384 35.992ZM368.4 43.8H273.68C261.776 43.8 259.344 38.936 259.344 29.976V12.312C259.344 3.992 265.744 0.919998 272.528 0.919998C278.032 0.919998 283.664 3.60799 285.2 9.368H342.544C343.952 3.22399 349.456 0.919998 355.344 0.919998C361.872 0.919998 368.4 4.12 368.4 12.312V43.8ZM289.552 28.952H342.288V23.576H285.584V25.112C285.584 27.672 286.48 28.952 289.552 28.952ZM364.432 65.688H263.568C257.296 65.688 254.096 62.488 254.096 57.112C254.096 51.864 257.168 48.536 263.568 48.536H364.432C370.832 48.536 373.904 51.864 373.904 57.112C373.904 62.488 370.704 65.688 364.432 65.688ZM287.888 106.264H365.072C370.32 106.264 372.24 109.848 372.24 113.56C372.24 117.272 370.448 120.728 365.072 120.728H273.808C262.8 120.728 257.68 113.432 257.68 104.856V103.832C257.68 95.128 262.672 88.856 273.808 88.856H342.288V86.296C342.288 85.144 341.648 84.376 339.984 84.376H266.256C261.52 84.376 258.96 80.92 258.96 77.208C258.96 73.496 261.136 70.04 266.256 70.04H354.32C365.2 70.04 368.656 74.136 368.656 81.944V101.784H287.888C286.096 101.784 285.2 102.68 285.2 104.088C285.2 105.368 286.096 106.264 287.888 106.264ZM455.056 58.776H491.92C498.832 58.776 501.904 62.744 501.904 67.992C501.904 73.368 498.704 77.208 491.92 77.208H392.08C385.296 77.208 382.096 73.368 382.096 67.992C382.096 62.744 385.168 58.776 392.08 58.776H428.944V55.192C428.944 54.552 428.944 54.04 429.072 53.528H402.32C391.952 53.528 387.344 49.176 387.344 39.96V15.384C387.344 6.16799 391.952 1.81599 402.32 1.81599H488.464C493.456 1.81599 496.144 5.01599 496.144 9.24C496.144 13.72 493.328 16.664 488.464 16.664H415.376C413.968 16.664 412.944 17.432 412.944 18.84V21.4H488.592C493.072 21.4 495.376 24.216 495.376 27.928C495.376 31.768 492.944 34.456 488.592 34.456H412.944V36.888C412.944 38.424 413.968 39.192 415.376 39.192H490.128C494.992 39.192 497.68 42.136 497.68 46.36C497.68 50.84 494.864 53.528 490.128 53.528H454.928C455.056 54.04 455.056 54.552 455.056 55.192V58.776ZM397.84 82.072H478.224C493.712 82.072 496.528 86.552 496.528 101.4V120.728H470.928V103.704C470.928 101.656 470.16 100.888 468.112 100.888H397.84C390.928 100.888 387.088 97.176 387.088 91.416C387.088 85.656 390.928 82.072 397.84 82.072Z" fill="#190EAA"/>
</svg>
