                        <svg width="20" height="20" viewBox="0 0 20 20" fill="none" xmlns="http://www.w3.org/2000/svg">
                        <path d="M5.775 18.85C5.375 19.0833 4.96667 19.15 4.55 19.05C4.13333 18.9333 3.80833 18.6917 3.575 18.325C3.35833 17.9583 3.28333 17.5417 3.35 17.075L4.225 12.1C4.225 12.0667 4.225 12.0667 4.225 12.1C4.24167 12.1167 4.25 12.15 4.25 12.2C4.26667 12.2833 4.28333 12.3667 4.3 12.45C4.33333 12.5333 4.35833 12.5833 4.375 12.6L0.75 9.025C0.416667 8.70833 0.241667 8.34167 0.225 7.925C0.208333 7.49167 0.333333 7.10833 0.6 6.775C0.883334 6.44167 1.25 6.25 1.7 6.2L6.425 5.5C6.30833 5.7 6.24167 5.80833 6.225 5.825L8.5 1.225C8.71667 0.824999 9.01667 0.558332 9.4 0.424999C9.8 0.274999 10.1917 0.274999 10.575 0.424999C10.975 0.558332 11.2833 0.824999 11.5 1.225L13.775 5.825C13.6917 5.70833 13.6167 5.59167 13.55 5.475L18.35 6.225C18.8 6.29167 19.15 6.49167 19.4 6.825C19.6667 7.14167 19.7833 7.50833 19.75 7.925C19.7333 8.34167 19.5667 8.70833 19.25 9.025L15.625 12.6C15.575 12.6333 15.5833 12.5417 15.65 12.325C15.7167 12.1083 15.7583 12.0333 15.775 12.1L16.65 17.075C16.7333 17.5417 16.6583 17.9583 16.425 18.325C16.1917 18.675 15.8667 18.9083 15.45 19.025C15.05 19.125 14.6417 19.0667 14.225 18.85L9.7 16.475C9.63333 16.4417 9.66667 16.425 9.8 16.425C9.93333 16.4083 10.0667 16.4083 10.2 16.425C10.3333 16.425 10.3667 16.4417 10.3 16.475L5.775 18.85Z" fill="#FCC900"/>
                        </svg>